HIERARCHY
ROOT hip
{
  OFFSET -1.41908 81.964 218.675
  CHANNELS 6 Xposition Yposition Zposition Zrotation Xrotation Yrotation
  JOINT abdomen
  {
    OFFSET 0 20.6881 -0.73152
    CHANNELS 3 Zrotation Xrotation Yrotation
    JOINT chest
    {
      OFFSET 0 11.7043 -0.48768
      CHANNELS 3 Zrotation Xrotation Yrotation
      JOINT neck
      {
        OFFSET 0 22.1894 -2.19456
        CHANNELS 3 Zrotation Xrotation Yrotation
        JOINT head
        {
          OFFSET -0.24384 7.07133 1.2192
          CHANNELS 3 Zrotation Xrotation Yrotation
          JOINT leftEye
          {
            OFFSET 4.14528 8.04674 8.04672
            CHANNELS 3 Zrotation Xrotation Yrotation
            End Site
            {
              OFFSET 1 0 0
            }
          }
          JOINT rightEye
          {
            OFFSET -3.6576 8.04674 8.04672
            CHANNELS 3 Zrotation Xrotation Yrotation
            End Site
            {
              OFFSET 1 0 0
            }
          }
        }
      }
      JOINT rCollar
      {
        OFFSET -2.68224 19.2634 -4.8768
        CHANNELS 3 Zrotation Xrotation Yrotation
        JOINT rShldr
        {
          OFFSET -8.77824 -1.95073 1.46304
          CHANNELS 3 Zrotation Xrotation Yrotation
          JOINT rForeArm
          {
            OFFSET -28.1742 -1.7115 0.48768
            CHANNELS 3 Zrotation Xrotation Yrotation
            JOINT rHand
            {
              OFFSET -22.5879 0.773209 7.07136
              CHANNELS 3 Zrotation Xrotation Yrotation
              JOINT rThumb1
              {
                OFFSET -1.2192 -0.487915 3.41376
                CHANNELS 3 Zrotation Xrotation Yrotation
                JOINT rThumb2
                {
                  OFFSET -3.37035 -0.52449 3.41376
                  CHANNELS 3 Zrotation Xrotation Yrotation
                  End Site
                  {
                    OFFSET -1.78271 -1.18214 1.43049
                  }
                }
              }
              JOINT rIndex1
              {
                OFFSET -7.75947 0.938293 5.60832
                CHANNELS 3 Zrotation Xrotation Yrotation
                JOINT rIndex2
                {
                  OFFSET -2.54057 -0.884171 1.56538
                  CHANNELS 3 Zrotation Xrotation Yrotation
                  End Site
                  {
                    OFFSET -1.62519 -0.234802 1.16502
                  }
                }
              }
              JOINT rMid1
              {
                OFFSET -8.24714 1.18213 3.41376
                CHANNELS 3 Zrotation Xrotation Yrotation
                JOINT rMid2
                {
                  OFFSET -3.10165 -0.590103 1.0647
                  CHANNELS 3 Zrotation Xrotation Yrotation
                  End Site
                  {
                    OFFSET -2.48547 -0.328903 0.83742
                  }
                }
              }
              JOINT rRing1
              {
                OFFSET -8.82822 0.546677 1.51678
                CHANNELS 3 Zrotation Xrotation Yrotation
                JOINT rRing2
                {
                  OFFSET -2.60934 -0.819778 -0.0198488
                  CHANNELS 3 Zrotation Xrotation Yrotation
                  End Site
                  {
                    OFFSET -2.33842 -0.294052 0.168128
                  }
                }
              }
              JOINT rPinky1
              {
                OFFSET -8.27202 -0.0477905 -0.4584
                CHANNELS 3 Zrotation Xrotation Yrotation
                JOINT rPinky2
                {
                  OFFSET -1.82734 -0.647385 -0.700984
                  CHANNELS 3 Zrotation Xrotation Yrotation
                  End Site
                  {
                    OFFSET -1.69225 -0.51767 -0.607171
                  }
                }
              }
            }
          }
        }
      }
      JOINT lCollar
      {
        OFFSET 2.68224 19.2634 -4.8768
        CHANNELS 3 Zrotation Xrotation Yrotation
        JOINT lShldr
        {
          OFFSET 8.77824 -1.95073 1.46304
          CHANNELS 3 Zrotation Xrotation Yrotation
          JOINT lForeArm
          {
            OFFSET 28.1742 -1.7115 0.48768
            CHANNELS 3 Zrotation Xrotation Yrotation
            JOINT lHand
            {
              OFFSET 22.5879 0.773209 7.07136
              CHANNELS 3 Zrotation Xrotation Yrotation
              JOINT lThumb1
              {
                OFFSET 1.2192 -0.487915 3.41376
                CHANNELS 3 Zrotation Xrotation Yrotation
                JOINT lThumb2
                {
                  OFFSET 3.37035 -0.52449 3.41376
                  CHANNELS 3 Zrotation Xrotation Yrotation
                  End Site
                  {
                    OFFSET 1.78271 -1.18214 1.43049
                  }
                }
              }
              JOINT lIndex1
              {
                OFFSET 7.75947 0.938293 5.60832
                CHANNELS 3 Zrotation Xrotation Yrotation
                JOINT lIndex2
                {
                  OFFSET 2.54057 -0.884171 1.56538
                  CHANNELS 3 Zrotation Xrotation Yrotation
                  End Site
                  {
                    OFFSET 1.62519 -0.234802 1.16502
                  }
                }
              }
              JOINT lMid1
              {
                OFFSET 8.24714 1.18213 3.41376
                CHANNELS 3 Zrotation Xrotation Yrotation
                JOINT lMid2
                {
                  OFFSET 3.10165 -0.590103 1.0647
                  CHANNELS 3 Zrotation Xrotation Yrotation
                  End Site
                  {
                    OFFSET 2.48547 -0.328903 0.83742
                  }
                }
              }
              JOINT lRing1
              {
                OFFSET 8.82822 0.546677 1.51678
                CHANNELS 3 Zrotation Xrotation Yrotation
                JOINT lRing2
                {
                  OFFSET 2.60934 -0.819778 -0.0198488
                  CHANNELS 3 Zrotation Xrotation Yrotation
                  End Site
                  {
                    OFFSET 2.33842 -0.294052 0.168128
                  }
                }
              }
              JOINT lPinky1
              {
                OFFSET 8.27202 -0.0477905 -0.4584
                CHANNELS 3 Zrotation Xrotation Yrotation
                JOINT lPinky2
                {
                  OFFSET 1.82734 -0.647385 -0.700984
                  CHANNELS 3 Zrotation Xrotation Yrotation
                  End Site
                  {
                    OFFSET 1.69225 -0.51767 -0.607171
                  }
                }
              }
            }
          }
        }
      }
    }
  }
  JOINT rButtock
  {
    OFFSET -8.77824 4.35084 1.2192
    CHANNELS 3 Zrotation Xrotation Yrotation
    JOINT rThigh
    {
      OFFSET 0 -1.70687 -2.19456
      CHANNELS 3 Zrotation Xrotation Yrotation
      JOINT rShin
      {
        OFFSET 0 -36.8199 0.73152
        CHANNELS 3 Zrotation Xrotation Yrotation
        JOINT rFoot
        {
          OFFSET 0.73152 -45.1104 -5.12064
          CHANNELS 3 Zrotation Xrotation Yrotation
          End Site
          {
            OFFSET -1.1221 -3.69964 12.103
          }
        }
      }
    }
  }
  JOINT lButtock
  {
    OFFSET 8.77824 4.35084 1.2192
    CHANNELS 3 Zrotation Xrotation Yrotation
    JOINT lThigh
    {
      OFFSET 0 -1.70687 -2.19456
      CHANNELS 3 Zrotation Xrotation Yrotation
      JOINT lShin
      {
        OFFSET 0 -36.8199 0.73152
        CHANNELS 3 Zrotation Xrotation Yrotation
        JOINT lFoot
        {
          OFFSET -0.73152 -45.1104 -5.12064
          CHANNELS 3 Zrotation Xrotation Yrotation
          End Site
          {
            OFFSET 1.1221 -3.69964 12.103
          }
        }
      }
    }
  }
}
MOTION
Frames:	6
Frame Time:	0.00833333
7.72949 85.0114 -144.343 -0.0194629 1.35391e-005 0.000335382 0.0256063 -6.19179e-006 0.000728837 0.00706476 8.63136e-006 0.00122382 -1.35592e-016 0 3.88251e-018 -4.06887e-016 3.18055e-015 1.0871e-017 -0 0 0 -0 0 0 4.83676e-017 -5.82377e-019 1.98785e-016 -4.39986e-016 7.76503e-016 5.96354e-016 -2.15681e-014 9.34288e-015 -2.54444e-014 -2.71944e-013 0 1.90833e-014 -6.4172e-013 9.22314e-015 2.22639e-014 -1.11995e-012 1.59028e-014 3.4191e-014 -6.36906e-013 1.03368e-014 9.54166e-015 7.73091 5.47488 0.417314 -6.40931e-013 9.1441e-015 2.22639e-014 2.90554 0.965183 0.102902 -6.32409e-013 9.54166e-015 1.98785e-014 10.2786 0.731801 0.0259123 -6.47243e-013 1.23246e-014 2.54444e-014 2.22167 -0.733487 -0.20892 -1.47765e-016 -3.88251e-019 -1.98785e-016 -2.35406e-015 1.86361e-016 -5.96354e-016 -2.39536e-014 -9.34288e-015 2.54444e-014 -2.72869e-013 -2.08724e-015 3.18055e-015 -6.42008e-013 -2.85457e-014 2.22639e-014 -1.09729e-012 -5.40694e-014 3.57812e-014 -6.47243e-013 -3.02153e-014 2.54444e-014 -7.73091 5.47488 -0.417314 -6.41975e-013 -2.88238e-014 1.59028e-014 -2.90554 0.965183 -0.102902 -6.48454e-013 -2.83268e-014 2.3059e-014 -10.2786 0.731801 -0.0259123 -6.40087e-013 -2.82274e-014 1.59028e-014 -2.22167 -0.733487 0.20892 -2.03217e-016 0 -3.88251e-019 0.512303 -3.13364 -0.0420886 -0.00562804 0.123099 -0.0495526 -0.492803 3.00963 0.11736 2.03217e-016 0 3.88251e-019 -0.473321 -3.03453 0.0397103 0.00592196 -0.0564348 0.0521748 0.492502 3.09005 -0.118955 
8.47579 83.1096 -144.292 1.44104 -0.645522 -0.498531 -1.20015 2.49966 -0.269459 0.754568 -0.634347 -0.121223 -2.62645 1.36737 -0.510218 1.94205 -1.17024 -0.438255 -0 0 0 -0 0 0 7.33797e-014 -8.28664e-015 -1.51069e-015 21.0651 3.75828 0.459778 -4.70498 -2.24413 7.22974 0.00748689 1.92211 0.269588 -4.95754e-010 3.34028e-010 -2.20972e-010 -8.57188e-010 5.7797e-010 -3.7836e-010 -4.95749e-010 3.34031e-010 -2.20985e-010 7.73091 5.47488 0.417314 -4.95754e-010 3.34029e-010 -2.20971e-010 2.90554 0.965183 0.102902 -4.95745e-010 3.34029e-010 -2.20974e-010 10.2786 0.731801 0.0259123 -4.95759e-010 3.34031e-010 -2.20968e-010 2.22167 -0.733487 -0.20892 7.32646e-014 -8.2875e-015 -1.88224e-015 -22.3789 4.86064 -0.16186 3.64783 -1.55772 -5.80153 -0.0416068 4.52907 -0.629367 -4.28005e-010 -5.80218e-010 -6.38879e-010 -7.48053e-010 -1.00541e-009 -1.09773e-009 -4.2801e-010 -5.80219e-010 -6.38876e-010 -7.73091 5.47488 -0.417314 -4.28004e-010 -5.80218e-010 -6.38882e-010 -2.90554 0.965183 -0.102902 -4.28011e-010 -5.80217e-010 -6.3888e-010 -10.2786 0.731801 -0.0259123 -4.28004e-010 -5.80217e-010 -6.38888e-010 -2.22167 -0.733487 0.20892 -2.03217e-016 0 -3.88251e-019 -0.914463 -10.4615 -1.36378 -0.00658336 18.5153 0.195681 -0.607075 2.03525 -1.38111 2.03217e-016 0 3.88251e-019 -3.10511 -6.00368 -0.591349 -0.00851604 8.41871 -0.059244 0.597717 -0.546826 1.18614 
8.55618 83.012 -143.354 2.96802 -1.33692 -1.03038 -2.46275 5.14195 -0.549111 1.53587 -1.3014 -0.249322 -5.37981 2.82349 -1.04892 3.97662 -2.41677 -0.8994 -0 0 0 -0 0 0 1.52344e-013 -1.7989e-014 -3.55638e-015 43.2618 7.71965 0.978384 -9.06983 -4.49862 14.9104 -0.0043473 3.96545 0.557214 -1.02312e-009 6.86854e-010 -4.496e-010 -1.76898e-009 1.18845e-009 -7.69676e-010 -1.02311e-009 6.86859e-010 -4.49613e-010 7.73091 5.47488 0.417314 -1.02312e-009 6.86856e-010 -4.49598e-010 2.90554 0.965183 0.102902 -1.02311e-009 6.86856e-010 -4.49601e-010 10.2786 0.731801 0.0259123 -1.02312e-009 6.86857e-010 -4.49595e-010 2.22167 -0.733487 -0.20892 1.52316e-013 -1.79909e-014 -3.90115e-015 -46.0291 9.96468 -0.299751 7.14969 -3.1424 -11.9275 0.0240091 9.33016 -1.31002 -8.77451e-010 -1.19158e-009 -1.32313e-009 -1.53376e-009 -2.06486e-009 -2.2735e-009 -8.77455e-010 -1.19158e-009 -1.32313e-009 -7.73091 5.47488 -0.417314 -8.77448e-010 -1.19158e-009 -1.32313e-009 -2.90554 0.965183 -0.102902 -8.77457e-010 -1.19158e-009 -1.32314e-009 -10.2786 0.731801 -0.0259123 -8.7745e-010 -1.19158e-009 -1.32314e-009 -2.22167 -0.733487 0.20892 -2.03217e-016 0 -3.88251e-019 -2.81012 -18.1278 -2.85984 -0.219994 38.0397 0.551967 -0.778881 1.04461 -2.93732 2.03217e-016 0 3.88251e-019 -5.9525 -9.16732 -1.27196 0.0141587 17.3754 -0.181944 0.887138 -4.35758 2.57024 
8.63428 83.0011 -142.207 4.32832 -1.93601 -1.49702 -3.58043 7.49833 -0.816044 2.24144 -1.90302 -0.366295 -7.80614 4.10081 -1.53415 5.77236 -3.50989 -1.31696 -0 0 0 -0 0 0 2.20042e-013 -2.48588e-014 -4.92963e-015 63.0114 11.2719 1.40345 -12.4524 -6.30454 21.8111 -0.0320359 5.76582 0.81242 -1.48598e-009 1.00206e-009 -6.62962e-010 -2.56933e-009 1.73388e-009 -1.13515e-009 -1.48597e-009 1.00207e-009 -6.62974e-010 7.73091 5.47488 0.417314 -1.48598e-009 1.00207e-009 -6.62959e-010 2.90554 0.965183 0.102902 -1.48597e-009 1.00207e-009 -6.62962e-010 10.2786 0.731801 0.0259123 -1.48598e-009 1.00207e-009 -6.62956e-010 2.22167 -0.733487 -0.20892 2.20089e-013 -2.48617e-014 -5.24916e-015 -67.0521 14.5814 -0.499936 10.0108 -4.48186 -17.4532 0.180926 13.5806 -1.93637 -1.28273e-009 -1.7406e-009 -1.91668e-009 -2.24196e-009 -3.01611e-009 -3.29326e-009 -1.28273e-009 -1.7406e-009 -1.91668e-009 -7.73091 5.47488 -0.417314 -1.28273e-009 -1.7406e-009 -1.91668e-009 -2.90554 0.965183 -0.102902 -1.28274e-009 -1.74059e-009 -1.91669e-009 -10.2786 0.731801 -0.0259123 -1.28273e-009 -1.74059e-009 -1.9167e-009 -2.22167 -0.733487 0.20892 -2.03217e-016 0 -3.88251e-019 -4.87494 -25.0624 -4.34946 -0.768791 55.2945 1.15181 -0.988387 0.0880029 -4.37511 2.03217e-016 0 3.88251e-019 -8.5688 -11.9367 -1.88439 0.069536 25.3687 -0.310066 1.30799 -7.80368 3.83135 
8.67572 82.9078 -141.005 5.2969 -2.30491 -1.79989 -4.38304 9.14049 -1.04568 2.76318 -2.34107 -0.455291 -9.46721 4.93235 -1.88227 7.00918 -4.22024 -1.62342 -0 0 0 -0 0 0 2.59578e-013 -2.4647e-014 -4.62174e-015 76.7904 13.8048 1.56886 -14.5392 -7.3979 26.6454 -0.0597702 6.95926 0.982947 -1.78759e-009 1.22324e-009 -8.38159e-010 -3.09107e-009 2.11668e-009 -1.43602e-009 -1.78759e-009 1.22324e-009 -8.38172e-010 7.73091 5.47488 0.417314 -1.78759e-009 1.22324e-009 -8.38156e-010 2.90554 0.965183 0.102902 -1.78759e-009 1.22324e-009 -8.38159e-010 10.2786 0.731801 0.0259123 -1.7876e-009 1.22324e-009 -8.38152e-010 2.22167 -0.733487 -0.20892 2.59665e-013 -2.46509e-014 -4.91992e-015 -81.5344 17.9798 -0.85061 11.9087 -5.38476 -21.4333 0.344287 16.4608 -2.37991 -1.5776e-009 -2.13376e-009 -2.28347e-009 -2.75641e-009 -3.69685e-009 -3.923e-009 -1.5776e-009 -2.13376e-009 -2.28347e-009 -7.73091 5.47488 -0.417314 -1.57759e-009 -2.13376e-009 -2.28347e-009 -2.90554 0.965183 -0.102902 -1.5776e-009 -2.13375e-009 -2.28348e-009 -10.2786 0.731801 -0.0259123 -1.5776e-009 -2.13375e-009 -2.28349e-009 -2.22167 -0.733487 0.20892 -2.03217e-016 0 -3.88251e-019 -6.56952 -30.2177 -5.52545 -1.66967 66.8789 2.05423 -1.19939 -0.785484 -5.5181 2.03217e-016 0 3.88251e-019 -10.4599 -13.7253 -2.29795 0.132348 30.954 -0.426096 1.71237 -10.355 4.74706 
8.69467 82.7584 -139.961 5.71865 -2.34522 -1.8831 -4.75962 9.78449 -1.20725 3.02365 -2.55724 -0.501174 -10.071 5.12023 -2.03962 7.47733 -4.36407 -1.78042 -0 0 0 -0 0 0 2.6361e-013 -1.22101e-014 -1.71568e-015 82.2879 14.9099 1.33797 -15.2929 -7.7765 28.5287 -0.0701095 7.30314 1.0324 -1.90042e-009 1.33447e-009 -9.94598e-010 -3.28673e-009 2.30941e-009 -1.70622e-009 -1.90041e-009 1.33448e-009 -9.94611e-010 7.73091 5.47488 0.417314 -1.90042e-009 1.33448e-009 -9.94596e-010 2.90554 0.965183 0.102902 -1.90041e-009 1.33447e-009 -9.94599e-010 10.2786 0.731801 0.0259123 -1.90042e-009 1.33448e-009 -9.94591e-010 2.22167 -0.733487 -0.20892 2.63683e-013 -1.22149e-014 -2.00027e-015 -86.8658 19.671 -1.41692 12.7243 -5.79424 -23.2121 0.414647 17.4574 -2.53839 -1.7648e-009 -2.38119e-009 -2.37373e-009 -3.08116e-009 -4.1242e-009 -4.07691e-009 -1.7648e-009 -2.38119e-009 -2.37373e-009 -7.73091 5.47488 -0.417314 -1.7648e-009 -2.38119e-009 -2.37373e-009 -2.90554 0.965183 -0.102902 -1.76481e-009 -2.38118e-009 -2.37374e-009 -10.2786 0.731801 -0.0259123 -1.7648e-009 -2.38118e-009 -2.37375e-009 -2.22167 -0.733487 0.20892 -2.03217e-016 0 -3.88251e-019 -7.31064 -32.98 -6.04386 -2.20508 70.6144 2.59146 -1.38 -1.59438 -6.2488 2.03217e-016 0 3.88251e-019 -11.2646 -14.1934 -2.41788 0.164842 33.2322 -0.50534 1.94185 -11.6903 5.15882 
